<?xml version="1.0" encoding="UTF-8" standalone="no"?>
<!DOCTYPE svg PUBLIC "-//W3C//DTD SVG 1.1//EN"
 "http://www.w3.org/Graphics/SVG/1.1/DTD/svg11.dtd">
<!-- Generated by graphviz version 9.0.0 (20230911.1827)
 -->
<!-- Pages: 1 -->
<svg width="685pt" height="307pt"
 viewBox="0.00 0.00 685.40 307.25" xmlns="http://www.w3.org/2000/svg" xmlns:xlink="http://www.w3.org/1999/xlink">
<g id="graph0" class="graph" transform="scale(1 1) rotate(0) translate(4 303.25)">
<polygon fill="white" stroke="none" points="-4,4 -4,-303.25 681.4,-303.25 681.4,4 -4,4"/>
<!-- graph -->
<g id="node1" class="node">
<title>graph</title>
<ellipse fill="none" stroke="black" cx="238.37" cy="-18" rx="31.6" ry="18"/>
<text text-anchor="middle" x="238.37" y="-12.57" font-family="Times New Roman,serif" font-size="14.00">graph</text>
</g>
<!-- graph&#45;&gt;graph -->
<g id="edge1" class="edge">
<title>graph&#45;&gt;graph</title>
<path fill="none" stroke="black" d="M266.91,-26.18C278.36,-26.64 287.97,-23.91 287.97,-18 287.97,-14.21 284.03,-11.73 278.18,-10.56"/>
<polygon fill="black" stroke="black" points="278.63,-7.08 268.42,-9.92 278.17,-14.07 278.63,-7.08"/>
<text text-anchor="middle" x="312.72" y="-12.57" font-family="Times New Roman,serif" font-size="14.00">graph_id</text>
</g>
<!-- nodes -->
<g id="node2" class="node">
<title>nodes</title>
<ellipse fill="none" stroke="black" cx="98.37" cy="-105.75" rx="33.1" ry="18"/>
<text text-anchor="middle" x="98.37" y="-100.33" font-family="Times New Roman,serif" font-size="14.00">nodes</text>
</g>
<!-- nodes&#45;&gt;graph -->
<g id="edge2" class="edge">
<title>nodes&#45;&gt;graph</title>
<path fill="none" stroke="black" d="M118.21,-90.94C133.49,-80.46 155.24,-65.89 174.87,-54 184.78,-48 195.77,-41.79 205.78,-36.29"/>
<polygon fill="black" stroke="black" points="207.33,-39.44 214.45,-31.59 203.99,-33.28 207.33,-39.44"/>
<text text-anchor="middle" x="200.12" y="-56.45" font-family="Times New Roman,serif" font-size="14.00">graph_id</text>
</g>
<!-- nodes&#45;&gt;nodes -->
<g id="edge3" class="edge">
<title>nodes&#45;&gt;nodes</title>
<path fill="none" stroke="black" d="M128.29,-113.94C139.85,-114.31 149.47,-111.58 149.47,-105.75 149.47,-102.02 145.52,-99.55 139.65,-98.36"/>
<polygon fill="black" stroke="black" points="140.02,-94.88 129.8,-97.66 139.52,-101.86 140.02,-94.88"/>
<text text-anchor="middle" x="175.72" y="-100.33" font-family="Times New Roman,serif" font-size="14.00">parent_id</text>
</g>
<!-- identifiers -->
<g id="node3" class="node">
<title>identifiers</title>
<ellipse fill="none" stroke="black" cx="352.37" cy="-105.75" rx="46.57" ry="18"/>
<text text-anchor="middle" x="352.37" y="-100.33" font-family="Times New Roman,serif" font-size="14.00">identifiers</text>
</g>
<!-- identifiers&#45;&gt;graph -->
<g id="edge4" class="edge">
<title>identifiers&#45;&gt;graph</title>
<path fill="none" stroke="black" d="M331.72,-89.22C313.33,-75.39 286.28,-55.04 266.02,-39.8"/>
<polygon fill="black" stroke="black" points="268.28,-37.12 258.18,-33.9 264.07,-42.71 268.28,-37.12"/>
<text text-anchor="middle" x="331.12" y="-56.45" font-family="Times New Roman,serif" font-size="14.00">graph_id</text>
</g>
<!-- identifiers&#45;&gt;identifiers -->
<g id="edge5" class="edge">
<title>identifiers&#45;&gt;identifiers</title>
<path fill="none" stroke="black" d="M394.29,-113.96C407,-113.76 416.94,-111.02 416.94,-105.75 416.94,-102.21 412.46,-99.81 405.66,-98.56"/>
<polygon fill="black" stroke="black" points="406.07,-95.08 395.8,-97.67 405.45,-102.05 406.07,-95.08"/>
<text text-anchor="middle" x="443.19" y="-100.33" font-family="Times New Roman,serif" font-size="14.00">parent_id</text>
</g>
<!-- nodes_identifiers -->
<g id="node4" class="node">
<title>nodes_identifiers</title>
<ellipse fill="none" stroke="black" cx="88.37" cy="-193.5" rx="74.02" ry="18"/>
<text text-anchor="middle" x="88.37" y="-188.07" font-family="Times New Roman,serif" font-size="14.00">nodes_identifiers</text>
</g>
<!-- nodes_identifiers&#45;&gt;graph -->
<g id="edge6" class="edge">
<title>nodes_identifiers&#45;&gt;graph</title>
<path fill="none" stroke="black" d="M60.43,-176.5C28.37,-156.09 -16.9,-119.61 6.87,-87.75 29.66,-57.21 136.81,-35.38 197.03,-25.28"/>
<polygon fill="black" stroke="black" points="197.25,-28.79 206.56,-23.72 196.12,-21.89 197.25,-28.79"/>
<text text-anchor="middle" x="32.12" y="-100.33" font-family="Times New Roman,serif" font-size="14.00">graph_id</text>
</g>
<!-- nodes_identifiers&#45;&gt;nodes -->
<g id="edge9" class="edge">
<title>nodes_identifiers&#45;&gt;nodes</title>
<path fill="none" stroke="black" d="M87.85,-175.04C87.8,-165.22 88.13,-152.75 89.62,-141.75 89.93,-139.42 90.35,-137.03 90.82,-134.63"/>
<polygon fill="black" stroke="black" points="94.16,-135.7 93,-125.17 87.34,-134.13 94.16,-135.7"/>
<text text-anchor="middle" x="113.24" y="-144.2" font-family="Times New Roman,serif" font-size="14.00">node_id</text>
</g>
<!-- nodes_identifiers&#45;&gt;identifiers -->
<g id="edge8" class="edge">
<title>nodes_identifiers&#45;&gt;identifiers</title>
<path fill="none" stroke="black" d="M118.05,-176.78C140.2,-165.61 171.5,-151.01 200.37,-141.75 239.63,-129.16 251.26,-133.29 291.37,-123.75 295.88,-122.68 300.56,-121.5 305.24,-120.27"/>
<polygon fill="black" stroke="black" points="305.83,-123.74 314.58,-117.76 304.01,-116.98 305.83,-123.74"/>
<text text-anchor="middle" x="233.37" y="-144.2" font-family="Times New Roman,serif" font-size="14.00">identifier_id</text>
</g>
<!-- nodes_identifiers&#45;&gt;nodes_identifiers -->
<g id="edge7" class="edge">
<title>nodes_identifiers&#45;&gt;nodes_identifiers</title>
<path fill="none" stroke="black" d="M155.37,-201.48C169.87,-200.7 180.39,-198.04 180.39,-193.5 180.39,-190.27 175.07,-187.99 166.79,-186.66"/>
<polygon fill="black" stroke="black" points="167.17,-183.19 156.87,-185.67 166.47,-190.15 167.17,-183.19"/>
<text text-anchor="middle" x="206.64" y="-188.07" font-family="Times New Roman,serif" font-size="14.00">parent_id</text>
</g>
<!-- links -->
<g id="node5" class="node">
<title>links</title>
<ellipse fill="none" stroke="black" cx="341.37" cy="-193.5" rx="27.61" ry="18"/>
<text text-anchor="middle" x="341.37" y="-188.07" font-family="Times New Roman,serif" font-size="14.00">links</text>
</g>
<!-- links&#45;&gt;graph -->
<g id="edge10" class="edge">
<title>links&#45;&gt;graph</title>
<path fill="none" stroke="black" d="M316.53,-185.22C300.75,-179.62 280.67,-170.6 266.37,-157.5 236.06,-129.73 233.43,-78.96 235.24,-47.21"/>
<polygon fill="black" stroke="black" points="238.7,-47.81 235.98,-37.57 231.72,-47.27 238.7,-47.81"/>
<text text-anchor="middle" x="269.12" y="-100.33" font-family="Times New Roman,serif" font-size="14.00">graph_id</text>
</g>
<!-- links&#45;&gt;identifiers -->
<g id="edge12" class="edge">
<title>links&#45;&gt;identifiers</title>
<path fill="none" stroke="black" d="M316.5,-185.57C291.84,-177.37 259.53,-162.2 272.87,-141.75 279.62,-131.4 290.19,-124.09 301.45,-118.94"/>
<polygon fill="black" stroke="black" points="302.48,-122.29 310.48,-115.34 299.89,-115.79 302.48,-122.29"/>
<text text-anchor="middle" x="331.12" y="-144.2" font-family="Times New Roman,serif" font-size="14.00">element_identifier_id</text>
</g>
<!-- links&#45;&gt;identifiers -->
<g id="edge13" class="edge">
<title>links&#45;&gt;identifiers</title>
<path fill="none" stroke="black" d="M362.92,-182.31C372.58,-176.5 382.98,-168.23 388.37,-157.5 393.12,-148.04 388.96,-138.39 382.02,-130.08"/>
<polygon fill="black" stroke="black" points="384.6,-127.72 375.09,-123.05 379.61,-132.63 384.6,-127.72"/>
<text text-anchor="middle" x="446.62" y="-144.2" font-family="Times New Roman,serif" font-size="14.00">partner_identifier_id</text>
</g>
<!-- links&#45;&gt;links -->
<g id="edge11" class="edge">
<title>links&#45;&gt;links</title>
<path fill="none" stroke="black" d="M366.23,-201.6C377.36,-202.37 386.98,-199.67 386.98,-193.5 386.98,-189.64 383.22,-187.14 377.69,-186"/>
<polygon fill="black" stroke="black" points="377.91,-182.51 367.75,-185.48 377.55,-189.5 377.91,-182.51"/>
<text text-anchor="middle" x="413.23" y="-188.07" font-family="Times New Roman,serif" font-size="14.00">parent_id</text>
</g>
<!-- links_identifiers -->
<g id="node6" class="node">
<title>links_identifiers</title>
<ellipse fill="none" stroke="black" cx="538.37" cy="-281.25" rx="68.53" ry="18"/>
<text text-anchor="middle" x="538.37" y="-275.82" font-family="Times New Roman,serif" font-size="14.00">links_identifiers</text>
</g>
<!-- links_identifiers&#45;&gt;graph -->
<g id="edge14" class="edge">
<title>links_identifiers&#45;&gt;graph</title>
<path fill="none" stroke="black" d="M561.9,-264.16C588.15,-244.09 624.79,-208.41 607.37,-175.5 544.17,-56.08 364.58,-27.78 281.5,-21.08"/>
<polygon fill="black" stroke="black" points="281.94,-17.6 271.71,-20.36 281.43,-24.58 281.94,-17.6"/>
<text text-anchor="middle" x="619.12" y="-144.2" font-family="Times New Roman,serif" font-size="14.00">graph_id</text>
</g>
<!-- links_identifiers&#45;&gt;identifiers -->
<g id="edge16" class="edge">
<title>links_identifiers&#45;&gt;identifiers</title>
<path fill="none" stroke="black" d="M539.9,-263.07C541.47,-233.86 540.09,-174.54 507.37,-141.75 493.4,-127.76 446.47,-118.46 407.88,-112.99"/>
<polygon fill="black" stroke="black" points="408.61,-109.55 398.24,-111.68 407.68,-116.49 408.61,-109.55"/>
<text text-anchor="middle" x="570.37" y="-188.07" font-family="Times New Roman,serif" font-size="14.00">identifier_id</text>
</g>
<!-- links_identifiers&#45;&gt;links -->
<g id="edge17" class="edge">
<title>links_identifiers&#45;&gt;links</title>
<path fill="none" stroke="black" d="M504.05,-265.31C467.59,-249.44 410.34,-224.52 374.38,-208.87"/>
<polygon fill="black" stroke="black" points="375.9,-205.71 365.34,-204.93 373.11,-212.13 375.9,-205.71"/>
<text text-anchor="middle" x="476.12" y="-231.95" font-family="Times New Roman,serif" font-size="14.00">link_id</text>
</g>
<!-- links_identifiers&#45;&gt;links_identifiers -->
<g id="edge15" class="edge">
<title>links_identifiers&#45;&gt;links_identifiers</title>
<path fill="none" stroke="black" d="M600.2,-289.3C614.44,-288.6 624.9,-285.92 624.9,-281.25 624.9,-277.93 619.61,-275.61 611.44,-274.3"/>
<polygon fill="black" stroke="black" points="612,-270.84 601.71,-273.35 611.32,-277.81 612,-270.84"/>
<text text-anchor="middle" x="651.15" y="-275.82" font-family="Times New Roman,serif" font-size="14.00">parent_id</text>
</g>
</g>
</svg>
