<?xml version="1.0" encoding="UTF-8" standalone="no"?>
<!DOCTYPE svg PUBLIC "-//W3C//DTD SVG 1.1//EN"
 "http://www.w3.org/Graphics/SVG/1.1/DTD/svg11.dtd">
<!-- Generated by graphviz version 9.0.0 (20230911.1827)
 -->
<!-- Pages: 1 -->
<svg width="1013pt" height="220pt"
 viewBox="0.00 0.00 1013.30 219.50" xmlns="http://www.w3.org/2000/svg" xmlns:xlink="http://www.w3.org/1999/xlink">
<g id="graph0" class="graph" transform="scale(1 1) rotate(0) translate(4 215.5)">
<polygon fill="white" stroke="none" points="-4,4 -4,-215.5 1009.3,-215.5 1009.3,4 -4,4"/>
<!-- graphs -->
<g id="node1" class="node">
<title>graphs</title>
<ellipse fill="none" stroke="black" cx="430.35" cy="-18" rx="35.6" ry="18"/>
<text text-anchor="middle" x="430.35" y="-12.57" font-family="Times New Roman,serif" font-size="14.00">graphs</text>
</g>
<!-- graphs&#45;&gt;graphs -->
<g id="edge1" class="edge">
<title>graphs&#45;&gt;graphs</title>
<path fill="none" stroke="black" d="M462.53,-26.21C474.3,-26.44 483.94,-23.7 483.94,-18 483.94,-14.26 479.79,-11.8 473.61,-10.61"/>
<polygon fill="black" stroke="black" points="474.27,-7.15 464.04,-9.9 473.75,-14.13 474.27,-7.15"/>
<text text-anchor="middle" x="508.69" y="-12.57" font-family="Times New Roman,serif" font-size="14.00">graph_id</text>
</g>
<!-- nodes -->
<g id="node2" class="node">
<title>nodes</title>
<ellipse fill="none" stroke="black" cx="99.35" cy="-105.75" rx="33.1" ry="18"/>
<text text-anchor="middle" x="99.35" y="-100.33" font-family="Times New Roman,serif" font-size="14.00">nodes</text>
</g>
<!-- nodes&#45;&gt;graphs -->
<g id="edge2" class="edge">
<title>nodes&#45;&gt;graphs</title>
<path fill="none" stroke="black" d="M128,-96.26C163.51,-85.84 225.93,-67.84 279.85,-54 315.79,-44.77 356.83,-35.3 386.97,-28.54"/>
<polygon fill="black" stroke="black" points="387.48,-32.01 396.47,-26.42 385.95,-25.18 387.48,-32.01"/>
<text text-anchor="middle" x="304.1" y="-56.45" font-family="Times New Roman,serif" font-size="14.00">graph_id</text>
</g>
<!-- nodes&#45;&gt;nodes -->
<g id="edge3" class="edge">
<title>nodes&#45;&gt;nodes</title>
<path fill="none" stroke="black" d="M129.27,-113.94C140.83,-114.31 150.45,-111.58 150.45,-105.75 150.45,-102.02 146.5,-99.55 140.63,-98.36"/>
<polygon fill="black" stroke="black" points="141,-94.88 130.78,-97.66 140.5,-101.86 141,-94.88"/>
<text text-anchor="middle" x="176.7" y="-100.33" font-family="Times New Roman,serif" font-size="14.00">parent_id</text>
</g>
<!-- identifiers -->
<g id="node3" class="node">
<title>identifiers</title>
<ellipse fill="none" stroke="black" cx="267.35" cy="-105.75" rx="46.57" ry="18"/>
<text text-anchor="middle" x="267.35" y="-100.33" font-family="Times New Roman,serif" font-size="14.00">identifiers</text>
</g>
<!-- identifiers&#45;&gt;graphs -->
<g id="edge4" class="edge">
<title>identifiers&#45;&gt;graphs</title>
<path fill="none" stroke="black" d="M294.26,-90.59C322.17,-75.91 365.88,-52.92 396.2,-36.97"/>
<polygon fill="black" stroke="black" points="397.76,-40.1 404.98,-32.35 394.5,-33.91 397.76,-40.1"/>
<text text-anchor="middle" x="388.1" y="-56.45" font-family="Times New Roman,serif" font-size="14.00">graph_id</text>
</g>
<!-- identifiers&#45;&gt;identifiers -->
<g id="edge5" class="edge">
<title>identifiers&#45;&gt;identifiers</title>
<path fill="none" stroke="black" d="M309.27,-113.96C321.98,-113.76 331.92,-111.02 331.92,-105.75 331.92,-102.21 327.44,-99.81 320.64,-98.56"/>
<polygon fill="black" stroke="black" points="321.05,-95.08 310.78,-97.67 320.42,-102.05 321.05,-95.08"/>
<text text-anchor="middle" x="358.17" y="-100.33" font-family="Times New Roman,serif" font-size="14.00">parent_id</text>
</g>
<!-- nodes_identifiers -->
<g id="node4" class="node">
<title>nodes_identifiers</title>
<ellipse fill="none" stroke="black" cx="99.35" cy="-193.5" rx="74.02" ry="18"/>
<text text-anchor="middle" x="99.35" y="-188.07" font-family="Times New Roman,serif" font-size="14.00">nodes_identifiers</text>
</g>
<!-- nodes_identifiers&#45;&gt;graphs -->
<g id="edge6" class="edge">
<title>nodes_identifiers&#45;&gt;graphs</title>
<path fill="none" stroke="black" d="M68.51,-176.82C32.38,-156.43 -19.29,-119.66 7.85,-87.75 55.66,-31.52 283.64,-21.16 383.41,-19.34"/>
<polygon fill="black" stroke="black" points="383.19,-22.84 393.13,-19.19 383.08,-15.84 383.19,-22.84"/>
<text text-anchor="middle" x="33.1" y="-100.33" font-family="Times New Roman,serif" font-size="14.00">graph_id</text>
</g>
<!-- nodes_identifiers&#45;&gt;nodes -->
<g id="edge9" class="edge">
<title>nodes_identifiers&#45;&gt;nodes</title>
<path fill="none" stroke="black" d="M99.35,-175.15C99.35,-163.76 99.35,-148.59 99.35,-135.43"/>
<polygon fill="black" stroke="black" points="102.85,-135.59 99.35,-125.59 95.85,-135.59 102.85,-135.59"/>
<text text-anchor="middle" x="122.22" y="-144.2" font-family="Times New Roman,serif" font-size="14.00">node_id</text>
</g>
<!-- nodes_identifiers&#45;&gt;identifiers -->
<g id="edge8" class="edge">
<title>nodes_identifiers&#45;&gt;identifiers</title>
<path fill="none" stroke="black" d="M130.16,-176.77C158.29,-162.41 199.95,-141.15 229.97,-125.83"/>
<polygon fill="black" stroke="black" points="231.4,-129.03 238.72,-121.36 228.22,-122.79 231.4,-129.03"/>
<text text-anchor="middle" x="232.35" y="-144.2" font-family="Times New Roman,serif" font-size="14.00">identifier_id</text>
</g>
<!-- nodes_identifiers&#45;&gt;nodes_identifiers -->
<g id="edge7" class="edge">
<title>nodes_identifiers&#45;&gt;nodes_identifiers</title>
<path fill="none" stroke="black" d="M166.35,-201.48C180.85,-200.7 191.37,-198.04 191.37,-193.5 191.37,-190.27 186.05,-187.99 177.77,-186.66"/>
<polygon fill="black" stroke="black" points="178.15,-183.19 167.85,-185.67 177.45,-190.15 178.15,-183.19"/>
<text text-anchor="middle" x="217.62" y="-188.07" font-family="Times New Roman,serif" font-size="14.00">parent_id</text>
</g>
<!-- links -->
<g id="node5" class="node">
<title>links</title>
<ellipse fill="none" stroke="black" cx="430.35" cy="-105.75" rx="27.61" ry="18"/>
<text text-anchor="middle" x="430.35" y="-100.33" font-family="Times New Roman,serif" font-size="14.00">links</text>
</g>
<!-- links&#45;&gt;graphs -->
<g id="edge10" class="edge">
<title>links&#45;&gt;graphs</title>
<path fill="none" stroke="black" d="M430.35,-87.4C430.35,-76.01 430.35,-60.84 430.35,-47.68"/>
<polygon fill="black" stroke="black" points="433.85,-47.84 430.35,-37.84 426.85,-47.84 433.85,-47.84"/>
<text text-anchor="middle" x="455.1" y="-56.45" font-family="Times New Roman,serif" font-size="14.00">graph_id</text>
</g>
<!-- links&#45;&gt;links -->
<g id="edge11" class="edge">
<title>links&#45;&gt;links</title>
<path fill="none" stroke="black" d="M455.21,-113.85C466.34,-114.62 475.96,-111.92 475.96,-105.75 475.96,-101.89 472.2,-99.39 466.67,-98.25"/>
<polygon fill="black" stroke="black" points="466.89,-94.76 456.73,-97.73 466.53,-101.75 466.89,-94.76"/>
<text text-anchor="middle" x="502.21" y="-100.33" font-family="Times New Roman,serif" font-size="14.00">parent_id</text>
</g>
<!-- identifiers_links_elements -->
<g id="node6" class="node">
<title>identifiers_links_elements</title>
<ellipse fill="none" stroke="black" cx="530.35" cy="-193.5" rx="105.45" ry="18"/>
<text text-anchor="middle" x="530.35" y="-188.07" font-family="Times New Roman,serif" font-size="14.00">identifiers_links_elements</text>
</g>
<!-- identifiers_links_elements&#45;&gt;graphs -->
<g id="edge12" class="edge">
<title>identifiers_links_elements&#45;&gt;graphs</title>
<path fill="none" stroke="black" d="M536.84,-175.33C543.95,-153.53 552.46,-115.42 537.35,-87.75 523.06,-61.58 494.08,-43.9 469.88,-33.02"/>
<polygon fill="black" stroke="black" points="471.48,-29.9 460.91,-29.22 468.75,-36.34 471.48,-29.9"/>
<text text-anchor="middle" x="570.1" y="-100.33" font-family="Times New Roman,serif" font-size="14.00">graph_id</text>
</g>
<!-- identifiers_links_elements&#45;&gt;identifiers -->
<g id="edge14" class="edge">
<title>identifiers_links_elements&#45;&gt;identifiers</title>
<path fill="none" stroke="black" d="M483.03,-177.07C434.83,-161.36 360.62,-137.16 313.03,-121.64"/>
<polygon fill="black" stroke="black" points="314.15,-118.33 303.56,-118.56 311.98,-124.98 314.15,-118.33"/>
<text text-anchor="middle" x="455.35" y="-144.2" font-family="Times New Roman,serif" font-size="14.00">identifier_id</text>
</g>
<!-- identifiers_links_elements&#45;&gt;identifiers_links_elements -->
<g id="edge13" class="edge">
<title>identifiers_links_elements&#45;&gt;identifiers_links_elements</title>
<path fill="none" stroke="black" d="M626.62,-201.15C642.71,-200.08 653.8,-197.53 653.8,-193.5 653.8,-190.51 647.69,-188.34 637.96,-186.98"/>
<polygon fill="black" stroke="black" points="638.43,-183.51 628.13,-186 637.74,-190.47 638.43,-183.51"/>
<text text-anchor="middle" x="680.05" y="-188.07" font-family="Times New Roman,serif" font-size="14.00">parent_id</text>
</g>
<!-- links_elements -->
<g id="node7" class="node">
<title>links_elements</title>
<ellipse fill="none" stroke="black" cx="696.35" cy="-105.75" rx="64.54" ry="18"/>
<text text-anchor="middle" x="696.35" y="-100.33" font-family="Times New Roman,serif" font-size="14.00">links_elements</text>
</g>
<!-- identifiers_links_elements&#45;&gt;links_elements -->
<g id="edge15" class="edge">
<title>identifiers_links_elements&#45;&gt;links_elements</title>
<path fill="none" stroke="black" d="M552.46,-175.49C570.37,-161.79 593.41,-144.39 598.35,-141.75 611.92,-134.47 627.33,-128.16 641.84,-122.98"/>
<polygon fill="black" stroke="black" points="642.96,-126.29 651.28,-119.73 640.69,-119.67 642.96,-126.29"/>
<text text-anchor="middle" x="641.85" y="-144.2" font-family="Times New Roman,serif" font-size="14.00">link_element_id</text>
</g>
<!-- links_elements&#45;&gt;graphs -->
<g id="edge16" class="edge">
<title>links_elements&#45;&gt;graphs</title>
<path fill="none" stroke="black" d="M665.37,-89.66C641.9,-78.67 608.63,-64.01 578.35,-54 544.15,-42.7 504.39,-33.51 474.69,-27.38"/>
<polygon fill="black" stroke="black" points="475.41,-23.96 464.91,-25.41 474.02,-30.82 475.41,-23.96"/>
<text text-anchor="middle" x="642.1" y="-56.45" font-family="Times New Roman,serif" font-size="14.00">graph_id</text>
</g>
<!-- links_elements&#45;&gt;links_elements -->
<g id="edge17" class="edge">
<title>links_elements&#45;&gt;links_elements</title>
<path fill="none" stroke="black" d="M754.58,-113.83C768.54,-113.2 778.89,-110.51 778.89,-105.75 778.89,-102.41 773.77,-100.08 765.88,-98.78"/>
<polygon fill="black" stroke="black" points="766.38,-95.31 756.09,-97.82 765.7,-102.28 766.38,-95.31"/>
<text text-anchor="middle" x="805.14" y="-100.33" font-family="Times New Roman,serif" font-size="14.00">parent_id</text>
</g>
<!-- links_elements_identifiers -->
<g id="node8" class="node">
<title>links_elements_identifiers</title>
<ellipse fill="none" stroke="black" cx="829.35" cy="-193.5" rx="105.45" ry="18"/>
<text text-anchor="middle" x="829.35" y="-188.07" font-family="Times New Roman,serif" font-size="14.00">links_elements_identifiers</text>
</g>
<!-- links_elements_identifiers&#45;&gt;graphs -->
<g id="edge18" class="edge">
<title>links_elements_identifiers&#45;&gt;graphs</title>
<path fill="none" stroke="black" d="M866.26,-176.3C873.51,-171.35 880.15,-165.14 884.35,-157.5 902.11,-125.15 855.79,-97.05 840.35,-87.75 779.65,-51.19 570.86,-30.27 476.87,-22.5"/>
<polygon fill="black" stroke="black" points="477.21,-19.02 466.96,-21.7 476.65,-26 477.21,-19.02"/>
<text text-anchor="middle" x="906.1" y="-100.33" font-family="Times New Roman,serif" font-size="14.00">graph_id</text>
</g>
<!-- links_elements_identifiers&#45;&gt;identifiers -->
<g id="edge21" class="edge">
<title>links_elements_identifiers&#45;&gt;identifiers</title>
<path fill="none" stroke="black" d="M762.17,-179.22C742.87,-173.95 722.21,-166.86 704.35,-157.5 694.63,-152.41 695.55,-145.79 685.35,-141.75 624.9,-117.83 458.05,-130.1 393.35,-123.75 369.68,-121.43 343.63,-118.05 321.38,-114.92"/>
<polygon fill="black" stroke="black" points="322.02,-111.47 311.62,-113.52 321.02,-118.4 322.02,-111.47"/>
<text text-anchor="middle" x="737.35" y="-144.2" font-family="Times New Roman,serif" font-size="14.00">identifier_id</text>
</g>
<!-- links_elements_identifiers&#45;&gt;links_elements -->
<g id="edge20" class="edge">
<title>links_elements_identifiers&#45;&gt;links_elements</title>
<path fill="none" stroke="black" d="M813.68,-175.44C803.27,-164.8 788.88,-151.34 774.35,-141.75 765.16,-135.68 754.74,-130.19 744.58,-125.45"/>
<polygon fill="black" stroke="black" points="746.08,-122.29 735.52,-121.41 743.23,-128.68 746.08,-122.29"/>
<text text-anchor="middle" x="836.85" y="-144.2" font-family="Times New Roman,serif" font-size="14.00">link_element_id</text>
</g>
<!-- links_elements_identifiers&#45;&gt;links_elements_identifiers -->
<g id="edge19" class="edge">
<title>links_elements_identifiers&#45;&gt;links_elements_identifiers</title>
<path fill="none" stroke="black" d="M925.62,-201.15C941.71,-200.08 952.8,-197.53 952.8,-193.5 952.8,-190.51 946.69,-188.34 936.96,-186.98"/>
<polygon fill="black" stroke="black" points="937.43,-183.51 927.13,-186 936.74,-190.47 937.43,-183.51"/>
<text text-anchor="middle" x="979.05" y="-188.07" font-family="Times New Roman,serif" font-size="14.00">parent_id</text>
</g>
</g>
</svg>
