<?xml version="1.0" encoding="UTF-8" standalone="no"?>
<!DOCTYPE svg PUBLIC "-//W3C//DTD SVG 1.1//EN"
 "http://www.w3.org/Graphics/SVG/1.1/DTD/svg11.dtd">
<!-- Generated by graphviz version 9.0.0 (20230911.1827)
 -->
<!-- Pages: 1 -->
<svg width="994pt" height="307pt"
 viewBox="0.00 0.00 993.60 307.25" xmlns="http://www.w3.org/2000/svg" xmlns:xlink="http://www.w3.org/1999/xlink">
<g id="graph0" class="graph" transform="scale(1 1) rotate(0) translate(4 303.25)">
<polygon fill="white" stroke="none" points="-4,4 -4,-303.25 989.6,-303.25 989.6,4 -4,4"/>
<!-- graphs -->
<g id="node1" class="node">
<title>graphs</title>
<ellipse fill="none" stroke="black" cx="502.1" cy="-18" rx="35.6" ry="18"/>
<text text-anchor="middle" x="502.1" y="-12.57" font-family="Times New Roman,serif" font-size="14.00">graphs</text>
</g>
<!-- graphs&#45;&gt;graphs -->
<g id="edge1" class="edge">
<title>graphs&#45;&gt;graphs</title>
<path fill="none" stroke="black" d="M534.28,-26.21C546.05,-26.44 555.7,-23.7 555.7,-18 555.7,-14.26 551.54,-11.8 545.36,-10.61"/>
<polygon fill="black" stroke="black" points="546.02,-7.15 535.79,-9.9 545.5,-14.13 546.02,-7.15"/>
<text text-anchor="middle" x="580.45" y="-12.57" font-family="Times New Roman,serif" font-size="14.00">graph_id</text>
</g>
<!-- nodes -->
<g id="node2" class="node">
<title>nodes</title>
<ellipse fill="none" stroke="black" cx="33.1" cy="-105.75" rx="33.1" ry="18"/>
<text text-anchor="middle" x="33.1" y="-100.33" font-family="Times New Roman,serif" font-size="14.00">nodes</text>
</g>
<!-- nodes&#45;&gt;graphs -->
<g id="edge2" class="edge">
<title>nodes&#45;&gt;graphs</title>
<path fill="none" stroke="black" d="M49.98,-89.92C64.65,-77.98 87.04,-61.91 109.6,-54 172.16,-32.06 364.94,-23.28 454.92,-20.31"/>
<polygon fill="black" stroke="black" points="455.01,-23.81 464.89,-19.99 454.78,-16.81 455.01,-23.81"/>
<text text-anchor="middle" x="134.85" y="-56.45" font-family="Times New Roman,serif" font-size="14.00">graph_id</text>
</g>
<!-- nodes&#45;&gt;nodes -->
<g id="edge3" class="edge">
<title>nodes&#45;&gt;nodes</title>
<path fill="none" stroke="black" d="M63.02,-113.94C74.59,-114.31 84.2,-111.58 84.2,-105.75 84.2,-102.02 80.25,-99.55 74.38,-98.36"/>
<polygon fill="black" stroke="black" points="74.75,-94.88 64.53,-97.66 74.25,-101.86 74.75,-94.88"/>
<text text-anchor="middle" x="110.45" y="-100.33" font-family="Times New Roman,serif" font-size="14.00">parent_id</text>
</g>
<!-- identifiers -->
<g id="node3" class="node">
<title>identifiers</title>
<ellipse fill="none" stroke="black" cx="287.1" cy="-105.75" rx="46.57" ry="18"/>
<text text-anchor="middle" x="287.1" y="-100.33" font-family="Times New Roman,serif" font-size="14.00">identifiers</text>
</g>
<!-- identifiers&#45;&gt;graphs -->
<g id="edge4" class="edge">
<title>identifiers&#45;&gt;graphs</title>
<path fill="none" stroke="black" d="M307.92,-89.33C323.84,-78.16 346.71,-63.43 368.6,-54 397.16,-41.7 431.08,-32.87 457.58,-27.16"/>
<polygon fill="black" stroke="black" points="458.25,-30.6 467.33,-25.14 456.83,-23.74 458.25,-30.6"/>
<text text-anchor="middle" x="392.85" y="-56.45" font-family="Times New Roman,serif" font-size="14.00">graph_id</text>
</g>
<!-- identifiers&#45;&gt;identifiers -->
<g id="edge5" class="edge">
<title>identifiers&#45;&gt;identifiers</title>
<path fill="none" stroke="black" d="M329.02,-113.96C341.74,-113.76 351.67,-111.02 351.67,-105.75 351.67,-102.21 347.19,-99.81 340.39,-98.56"/>
<polygon fill="black" stroke="black" points="340.8,-95.08 330.53,-97.67 340.18,-102.05 340.8,-95.08"/>
<text text-anchor="middle" x="377.92" y="-100.33" font-family="Times New Roman,serif" font-size="14.00">parent_id</text>
</g>
<!-- nodes_identifiers -->
<g id="node4" class="node">
<title>nodes_identifiers</title>
<ellipse fill="none" stroke="black" cx="106.1" cy="-193.5" rx="74.02" ry="18"/>
<text text-anchor="middle" x="106.1" y="-188.07" font-family="Times New Roman,serif" font-size="14.00">nodes_identifiers</text>
</g>
<!-- nodes_identifiers&#45;&gt;graphs -->
<g id="edge6" class="edge">
<title>nodes_identifiers&#45;&gt;graphs</title>
<path fill="none" stroke="black" d="M116.3,-175.43C132.56,-148.78 164.28,-99.15 181.6,-87.75 266.36,-31.97 388.52,-20.54 454.87,-18.74"/>
<polygon fill="black" stroke="black" points="454.75,-22.24 464.68,-18.54 454.61,-15.24 454.75,-22.24"/>
<text text-anchor="middle" x="206.85" y="-100.33" font-family="Times New Roman,serif" font-size="14.00">graph_id</text>
</g>
<!-- nodes_identifiers&#45;&gt;nodes -->
<g id="edge9" class="edge">
<title>nodes_identifiers&#45;&gt;nodes</title>
<path fill="none" stroke="black" d="M91.68,-175.56C80.91,-162.91 66.03,-145.43 53.96,-131.25"/>
<polygon fill="black" stroke="black" points="56.64,-129 47.49,-123.65 51.31,-133.54 56.64,-129"/>
<text text-anchor="middle" x="99.98" y="-144.2" font-family="Times New Roman,serif" font-size="14.00">node_id</text>
</g>
<!-- nodes_identifiers&#45;&gt;identifiers -->
<g id="edge8" class="edge">
<title>nodes_identifiers&#45;&gt;identifiers</title>
<path fill="none" stroke="black" d="M142.88,-177.61C156.13,-171.83 171.02,-164.83 184.1,-157.5 194.91,-151.44 196.27,-147.76 207.1,-141.75 218.89,-135.21 232.15,-128.99 244.42,-123.66"/>
<polygon fill="black" stroke="black" points="245.67,-126.93 253.51,-119.8 242.94,-120.49 245.67,-126.93"/>
<text text-anchor="middle" x="240.1" y="-144.2" font-family="Times New Roman,serif" font-size="14.00">identifier_id</text>
</g>
<!-- nodes_identifiers&#45;&gt;nodes_identifiers -->
<g id="edge7" class="edge">
<title>nodes_identifiers&#45;&gt;nodes_identifiers</title>
<path fill="none" stroke="black" d="M173.1,-201.48C187.6,-200.7 198.12,-198.04 198.12,-193.5 198.12,-190.27 192.8,-187.99 184.52,-186.66"/>
<polygon fill="black" stroke="black" points="184.9,-183.19 174.6,-185.67 184.2,-190.15 184.9,-183.19"/>
<text text-anchor="middle" x="224.37" y="-188.07" font-family="Times New Roman,serif" font-size="14.00">parent_id</text>
</g>
<!-- links -->
<g id="node5" class="node">
<title>links</title>
<ellipse fill="none" stroke="black" cx="671.1" cy="-105.75" rx="27.61" ry="18"/>
<text text-anchor="middle" x="671.1" y="-100.33" font-family="Times New Roman,serif" font-size="14.00">links</text>
</g>
<!-- links&#45;&gt;graphs -->
<g id="edge10" class="edge">
<title>links&#45;&gt;graphs</title>
<path fill="none" stroke="black" d="M652.68,-91.86C636.62,-80.95 612.45,-65.33 590.1,-54 574.64,-46.16 556.99,-38.85 541.58,-32.95"/>
<polygon fill="black" stroke="black" points="542.82,-29.68 532.23,-29.45 540.37,-36.23 542.82,-29.68"/>
<text text-anchor="middle" x="641.85" y="-56.45" font-family="Times New Roman,serif" font-size="14.00">graph_id</text>
</g>
<!-- links&#45;&gt;links -->
<g id="edge11" class="edge">
<title>links&#45;&gt;links</title>
<path fill="none" stroke="black" d="M695.97,-113.85C707.09,-114.62 716.71,-111.92 716.71,-105.75 716.71,-101.89 712.95,-99.39 707.42,-98.25"/>
<polygon fill="black" stroke="black" points="707.65,-94.76 697.48,-97.73 707.28,-101.75 707.65,-94.76"/>
<text text-anchor="middle" x="742.96" y="-100.33" font-family="Times New Roman,serif" font-size="14.00">parent_id</text>
</g>
<!-- links_identifiers -->
<g id="node6" class="node">
<title>links_identifiers</title>
<ellipse fill="none" stroke="black" cx="580.1" cy="-193.5" rx="68.53" ry="18"/>
<text text-anchor="middle" x="580.1" y="-188.07" font-family="Times New Roman,serif" font-size="14.00">links_identifiers</text>
</g>
<!-- links_identifiers&#45;&gt;graphs -->
<g id="edge12" class="edge">
<title>links_identifiers&#45;&gt;graphs</title>
<path fill="none" stroke="black" d="M574.58,-175.4C571.23,-165.47 566.73,-152.78 562.1,-141.75 547.93,-108.03 529.07,-70.4 516.3,-45.8"/>
<polygon fill="black" stroke="black" points="519.5,-44.38 511.77,-37.14 513.3,-47.62 519.5,-44.38"/>
<text text-anchor="middle" x="577.85" y="-100.33" font-family="Times New Roman,serif" font-size="14.00">graph_id</text>
</g>
<!-- links_identifiers&#45;&gt;identifiers -->
<g id="edge14" class="edge">
<title>links_identifiers&#45;&gt;identifiers</title>
<path fill="none" stroke="black" d="M541.27,-178.26C526.79,-172.45 510.4,-165.27 496.1,-157.5 485.21,-151.59 484.54,-146.5 473.1,-141.75 431.7,-124.58 381.62,-115.77 343.86,-111.29"/>
<polygon fill="black" stroke="black" points="344.39,-107.82 334.06,-110.2 343.61,-114.78 344.39,-107.82"/>
<text text-anchor="middle" x="529.1" y="-144.2" font-family="Times New Roman,serif" font-size="14.00">identifier_id</text>
</g>
<!-- links_identifiers&#45;&gt;links -->
<g id="edge15" class="edge">
<title>links_identifiers&#45;&gt;links</title>
<path fill="none" stroke="black" d="M597.65,-175.97C611.85,-162.58 631.99,-143.6 647.59,-128.9"/>
<polygon fill="black" stroke="black" points="649.75,-131.68 654.63,-122.27 644.95,-126.58 649.75,-131.68"/>
<text text-anchor="middle" x="651.85" y="-144.2" font-family="Times New Roman,serif" font-size="14.00">link_id</text>
</g>
<!-- links_identifiers&#45;&gt;links_identifiers -->
<g id="edge13" class="edge">
<title>links_identifiers&#45;&gt;links_identifiers</title>
<path fill="none" stroke="black" d="M641.93,-201.55C656.17,-200.85 666.63,-198.17 666.63,-193.5 666.63,-190.18 661.34,-187.86 653.17,-186.55"/>
<polygon fill="black" stroke="black" points="653.73,-183.09 643.44,-185.6 653.05,-190.06 653.73,-183.09"/>
<text text-anchor="middle" x="692.88" y="-188.07" font-family="Times New Roman,serif" font-size="14.00">parent_id</text>
</g>
<!-- identifiers_links_elements -->
<g id="node7" class="node">
<title>identifiers_links_elements</title>
<ellipse fill="none" stroke="black" cx="381.1" cy="-281.25" rx="105.45" ry="18"/>
<text text-anchor="middle" x="381.1" y="-275.82" font-family="Times New Roman,serif" font-size="14.00">identifiers_links_elements</text>
</g>
<!-- identifiers_links_elements&#45;&gt;graphs -->
<g id="edge16" class="edge">
<title>identifiers_links_elements&#45;&gt;graphs</title>
<path fill="none" stroke="black" d="M380.99,-262.96C381.39,-241.69 383.86,-204.79 395.1,-175.5 414.97,-123.7 455.06,-72.26 480.13,-43.17"/>
<polygon fill="black" stroke="black" points="482.44,-45.85 486.4,-36.02 477.17,-41.24 482.44,-45.85"/>
<text text-anchor="middle" x="433.85" y="-144.2" font-family="Times New Roman,serif" font-size="14.00">graph_id</text>
</g>
<!-- identifiers_links_elements&#45;&gt;identifiers -->
<g id="edge18" class="edge">
<title>identifiers_links_elements&#45;&gt;identifiers</title>
<path fill="none" stroke="black" d="M352.67,-263.53C334.81,-251.43 312.97,-233.39 301.1,-211.5 288.41,-188.09 285.61,-157.56 285.56,-135.5"/>
<polygon fill="black" stroke="black" points="289.06,-135.8 285.75,-125.74 282.06,-135.67 289.06,-135.8"/>
<text text-anchor="middle" x="334.1" y="-188.07" font-family="Times New Roman,serif" font-size="14.00">identifier_id</text>
</g>
<!-- identifiers_links_elements&#45;&gt;identifiers_links_elements -->
<g id="edge17" class="edge">
<title>identifiers_links_elements&#45;&gt;identifiers_links_elements</title>
<path fill="none" stroke="black" d="M477.38,-288.9C493.46,-287.83 504.55,-285.28 504.55,-281.25 504.55,-278.26 498.44,-276.09 488.72,-274.73"/>
<polygon fill="black" stroke="black" points="489.18,-271.26 478.88,-273.75 488.49,-278.22 489.18,-271.26"/>
<text text-anchor="middle" x="530.8" y="-275.82" font-family="Times New Roman,serif" font-size="14.00">parent_id</text>
</g>
<!-- links_elements -->
<g id="node8" class="node">
<title>links_elements</title>
<ellipse fill="none" stroke="black" cx="802.1" cy="-193.5" rx="64.54" ry="18"/>
<text text-anchor="middle" x="802.1" y="-188.07" font-family="Times New Roman,serif" font-size="14.00">links_elements</text>
</g>
<!-- identifiers_links_elements&#45;&gt;links_elements -->
<g id="edge19" class="edge">
<title>identifiers_links_elements&#45;&gt;links_elements</title>
<path fill="none" stroke="black" d="M450.03,-267.23C520.14,-253.84 631.86,-232.08 728.1,-211.5 732.94,-210.46 737.96,-209.37 742.99,-208.25"/>
<polygon fill="black" stroke="black" points="743.52,-211.72 752.5,-206.11 741.98,-204.89 743.52,-211.72"/>
<text text-anchor="middle" x="675.6" y="-231.95" font-family="Times New Roman,serif" font-size="14.00">link_element_id</text>
</g>
<!-- links_elements&#45;&gt;graphs -->
<g id="edge20" class="edge">
<title>links_elements&#45;&gt;graphs</title>
<path fill="none" stroke="black" d="M803.06,-175.27C803.36,-152.34 800.37,-111.88 778.1,-87.75 747.29,-54.36 618.18,-33.45 548,-24.33"/>
<polygon fill="black" stroke="black" points="548.71,-20.89 538.35,-23.11 547.83,-27.84 548.71,-20.89"/>
<text text-anchor="middle" x="820.85" y="-100.33" font-family="Times New Roman,serif" font-size="14.00">graph_id</text>
</g>
<!-- links_elements&#45;&gt;links -->
<g id="edge22" class="edge">
<title>links_elements&#45;&gt;links</title>
<path fill="none" stroke="black" d="M777.77,-176.57C755.62,-162.08 722.93,-140.68 699.58,-125.39"/>
<polygon fill="black" stroke="black" points="701.75,-122.63 691.47,-120.08 697.92,-128.49 701.75,-122.63"/>
<text text-anchor="middle" x="766.85" y="-144.2" font-family="Times New Roman,serif" font-size="14.00">link_id</text>
</g>
<!-- links_elements&#45;&gt;links_elements -->
<g id="edge21" class="edge">
<title>links_elements&#45;&gt;links_elements</title>
<path fill="none" stroke="black" d="M860.33,-201.58C874.29,-200.95 884.64,-198.26 884.64,-193.5 884.64,-190.16 879.52,-187.83 871.63,-186.53"/>
<polygon fill="black" stroke="black" points="872.13,-183.06 861.84,-185.57 871.45,-190.03 872.13,-183.06"/>
<text text-anchor="middle" x="910.89" y="-188.07" font-family="Times New Roman,serif" font-size="14.00">parent_id</text>
</g>
<!-- links_elements_identifiers -->
<g id="node9" class="node">
<title>links_elements_identifiers</title>
<ellipse fill="none" stroke="black" cx="802.1" cy="-281.25" rx="105.45" ry="18"/>
<text text-anchor="middle" x="802.1" y="-275.82" font-family="Times New Roman,serif" font-size="14.00">links_elements_identifiers</text>
</g>
<!-- links_elements_identifiers&#45;&gt;graphs -->
<g id="edge23" class="edge">
<title>links_elements_identifiers&#45;&gt;graphs</title>
<path fill="none" stroke="black" d="M868.43,-266.96C898.28,-257.15 930.31,-240.28 946.1,-211.5 953.8,-197.47 952.55,-190.14 946.1,-175.5 922.79,-122.6 900.22,-116.56 850.1,-87.75 753.37,-32.15 619.27,-20.81 549.13,-18.94"/>
<polygon fill="black" stroke="black" points="549.61,-15.45 539.54,-18.74 549.47,-22.44 549.61,-15.45"/>
<text text-anchor="middle" x="960.85" y="-144.2" font-family="Times New Roman,serif" font-size="14.00">graph_id</text>
</g>
<!-- links_elements_identifiers&#45;&gt;identifiers -->
<g id="edge26" class="edge">
<title>links_elements_identifiers&#45;&gt;identifiers</title>
<path fill="none" stroke="black" d="M728.26,-268.11C629.2,-251.55 462.61,-222.68 436.1,-211.5 388.52,-191.43 341,-154.33 312.84,-130.1"/>
<polygon fill="black" stroke="black" points="315.37,-127.67 305.53,-123.72 310.76,-132.94 315.37,-127.67"/>
<text text-anchor="middle" x="469.1" y="-188.07" font-family="Times New Roman,serif" font-size="14.00">identifier_id</text>
</g>
<!-- links_elements_identifiers&#45;&gt;links_elements -->
<g id="edge25" class="edge">
<title>links_elements_identifiers&#45;&gt;links_elements</title>
<path fill="none" stroke="black" d="M802.1,-262.9C802.1,-251.51 802.1,-236.34 802.1,-223.18"/>
<polygon fill="black" stroke="black" points="805.6,-223.34 802.1,-213.34 798.6,-223.34 805.6,-223.34"/>
<text text-anchor="middle" x="845.6" y="-231.95" font-family="Times New Roman,serif" font-size="14.00">link_element_id</text>
</g>
<!-- links_elements_identifiers&#45;&gt;links_elements_identifiers -->
<g id="edge24" class="edge">
<title>links_elements_identifiers&#45;&gt;links_elements_identifiers</title>
<path fill="none" stroke="black" d="M898.38,-288.9C914.46,-287.83 925.55,-285.28 925.55,-281.25 925.55,-278.26 919.44,-276.09 909.72,-274.73"/>
<polygon fill="black" stroke="black" points="910.18,-271.26 899.88,-273.75 909.49,-278.22 910.18,-271.26"/>
<text text-anchor="middle" x="951.8" y="-275.82" font-family="Times New Roman,serif" font-size="14.00">parent_id</text>
</g>
</g>
</svg>
