<?xml version="1.0" encoding="UTF-8" standalone="no"?>
<!DOCTYPE svg PUBLIC "-//W3C//DTD SVG 1.1//EN"
 "http://www.w3.org/Graphics/SVG/1.1/DTD/svg11.dtd">
<!-- Generated by graphviz version 9.0.0 (20230911.1827)
 -->
<!-- Pages: 1 -->
<svg width="1150pt" height="220pt"
 viewBox="0.00 0.00 1150.05 219.50" xmlns="http://www.w3.org/2000/svg" xmlns:xlink="http://www.w3.org/1999/xlink">
<g id="graph0" class="graph" transform="scale(1 1) rotate(0) translate(4 215.5)">
<polygon fill="white" stroke="none" points="-4,4 -4,-215.5 1146.05,-215.5 1146.05,4 -4,4"/>
<!-- graphs -->
<g id="node1" class="node">
<title>graphs</title>
<ellipse fill="none" stroke="black" cx="439.1" cy="-18" rx="35.6" ry="18"/>
<text text-anchor="middle" x="439.1" y="-12.57" font-family="Times New Roman,serif" font-size="14.00">graphs</text>
</g>
<!-- graphs&#45;&gt;graphs -->
<g id="edge1" class="edge">
<title>graphs&#45;&gt;graphs</title>
<path fill="none" stroke="black" d="M471.28,-26.21C483.05,-26.44 492.7,-23.7 492.7,-18 492.7,-14.26 488.54,-11.8 482.36,-10.61"/>
<polygon fill="black" stroke="black" points="483.02,-7.15 472.79,-9.9 482.5,-14.13 483.02,-7.15"/>
<text text-anchor="middle" x="517.45" y="-12.57" font-family="Times New Roman,serif" font-size="14.00">graph_id</text>
</g>
<!-- nodes -->
<g id="node2" class="node">
<title>nodes</title>
<ellipse fill="none" stroke="black" cx="33.1" cy="-105.75" rx="33.1" ry="18"/>
<text text-anchor="middle" x="33.1" y="-100.33" font-family="Times New Roman,serif" font-size="14.00">nodes</text>
</g>
<!-- nodes&#45;&gt;graphs -->
<g id="edge2" class="edge">
<title>nodes&#45;&gt;graphs</title>
<path fill="none" stroke="black" d="M50.02,-90.02C64.71,-78.13 87.11,-62.1 109.6,-54 160.37,-35.71 313.7,-25.43 392,-21.24"/>
<polygon fill="black" stroke="black" points="392.12,-24.74 401.93,-20.72 391.76,-17.75 392.12,-24.74"/>
<text text-anchor="middle" x="133.85" y="-56.45" font-family="Times New Roman,serif" font-size="14.00">graph_id</text>
</g>
<!-- nodes&#45;&gt;nodes -->
<g id="edge3" class="edge">
<title>nodes&#45;&gt;nodes</title>
<path fill="none" stroke="black" d="M63.02,-113.94C74.59,-114.31 84.2,-111.58 84.2,-105.75 84.2,-102.02 80.25,-99.55 74.38,-98.36"/>
<polygon fill="black" stroke="black" points="74.75,-94.88 64.53,-97.66 74.25,-101.86 74.75,-94.88"/>
<text text-anchor="middle" x="110.45" y="-100.33" font-family="Times New Roman,serif" font-size="14.00">parent_id</text>
</g>
<!-- identifiers -->
<g id="node3" class="node">
<title>identifiers</title>
<ellipse fill="none" stroke="black" cx="516.1" cy="-105.75" rx="46.57" ry="18"/>
<text text-anchor="middle" x="516.1" y="-100.33" font-family="Times New Roman,serif" font-size="14.00">identifiers</text>
</g>
<!-- identifiers&#45;&gt;graphs -->
<g id="edge4" class="edge">
<title>identifiers&#45;&gt;graphs</title>
<path fill="none" stroke="black" d="M501.25,-88.22C489.82,-75.48 473.84,-57.68 460.94,-43.32"/>
<polygon fill="black" stroke="black" points="463.68,-41.13 454.39,-36.03 458.47,-45.81 463.68,-41.13"/>
<text text-anchor="middle" x="508.85" y="-56.45" font-family="Times New Roman,serif" font-size="14.00">graph_id</text>
</g>
<!-- identifiers&#45;&gt;identifiers -->
<g id="edge5" class="edge">
<title>identifiers&#45;&gt;identifiers</title>
<path fill="none" stroke="black" d="M558.02,-113.96C570.74,-113.76 580.67,-111.02 580.67,-105.75 580.67,-102.21 576.19,-99.81 569.39,-98.56"/>
<polygon fill="black" stroke="black" points="569.8,-95.08 559.53,-97.67 569.18,-102.05 569.8,-95.08"/>
<text text-anchor="middle" x="606.92" y="-100.33" font-family="Times New Roman,serif" font-size="14.00">parent_id</text>
</g>
<!-- nodes_identifiers -->
<g id="node4" class="node">
<title>nodes_identifiers</title>
<ellipse fill="none" stroke="black" cx="172.1" cy="-193.5" rx="74.02" ry="18"/>
<text text-anchor="middle" x="172.1" y="-188.07" font-family="Times New Roman,serif" font-size="14.00">nodes_identifiers</text>
</g>
<!-- nodes_identifiers&#45;&gt;graphs -->
<g id="edge6" class="edge">
<title>nodes_identifiers&#45;&gt;graphs</title>
<path fill="none" stroke="black" d="M168.24,-175.41C164.17,-152.62 160.89,-112.33 181.6,-87.75 208.67,-55.62 326.91,-34.48 393.35,-24.9"/>
<polygon fill="black" stroke="black" points="393.81,-28.37 403.23,-23.52 392.84,-21.44 393.81,-28.37"/>
<text text-anchor="middle" x="205.85" y="-100.33" font-family="Times New Roman,serif" font-size="14.00">graph_id</text>
</g>
<!-- nodes_identifiers&#45;&gt;nodes -->
<g id="edge9" class="edge">
<title>nodes_identifiers&#45;&gt;nodes</title>
<path fill="none" stroke="black" d="M144.81,-176.44C134.87,-170.54 123.57,-163.77 113.35,-157.5 96.64,-147.24 78.13,-135.56 63.11,-125.99"/>
<polygon fill="black" stroke="black" points="65.38,-123.29 55.07,-120.86 61.61,-129.19 65.38,-123.29"/>
<text text-anchor="middle" x="135.98" y="-144.2" font-family="Times New Roman,serif" font-size="14.00">node_id</text>
</g>
<!-- nodes_identifiers&#45;&gt;identifiers -->
<g id="edge8" class="edge">
<title>nodes_identifiers&#45;&gt;identifiers</title>
<path fill="none" stroke="black" d="M222.68,-179.94C264.57,-169.57 325.66,-154.55 379.1,-141.75 413.28,-133.57 422.07,-132.54 456.1,-123.75 460.17,-122.7 464.38,-121.58 468.59,-120.43"/>
<polygon fill="black" stroke="black" points="469.52,-123.8 478.23,-117.76 467.65,-117.06 469.52,-123.8"/>
<text text-anchor="middle" x="412.1" y="-144.2" font-family="Times New Roman,serif" font-size="14.00">identifier_id</text>
</g>
<!-- nodes_identifiers&#45;&gt;nodes_identifiers -->
<g id="edge7" class="edge">
<title>nodes_identifiers&#45;&gt;nodes_identifiers</title>
<path fill="none" stroke="black" d="M239.1,-201.48C253.6,-200.7 264.12,-198.04 264.12,-193.5 264.12,-190.27 258.8,-187.99 250.52,-186.66"/>
<polygon fill="black" stroke="black" points="250.9,-183.19 240.6,-185.67 250.2,-190.15 250.9,-183.19"/>
<text text-anchor="middle" x="290.37" y="-188.07" font-family="Times New Roman,serif" font-size="14.00">parent_id</text>
</g>
<!-- links -->
<g id="node5" class="node">
<title>links</title>
<ellipse fill="none" stroke="black" cx="268.1" cy="-105.75" rx="27.61" ry="18"/>
<text text-anchor="middle" x="268.1" y="-100.33" font-family="Times New Roman,serif" font-size="14.00">links</text>
</g>
<!-- links&#45;&gt;graphs -->
<g id="edge10" class="edge">
<title>links&#45;&gt;graphs</title>
<path fill="none" stroke="black" d="M284.58,-90.77C298.33,-79.65 318.8,-64.3 338.6,-54 357.15,-44.35 378.94,-36.4 397.47,-30.52"/>
<polygon fill="black" stroke="black" points="398.27,-33.94 406.8,-27.66 396.22,-27.25 398.27,-33.94"/>
<text text-anchor="middle" x="362.85" y="-56.45" font-family="Times New Roman,serif" font-size="14.00">graph_id</text>
</g>
<!-- links&#45;&gt;links -->
<g id="edge11" class="edge">
<title>links&#45;&gt;links</title>
<path fill="none" stroke="black" d="M292.97,-113.85C304.09,-114.62 313.71,-111.92 313.71,-105.75 313.71,-101.89 309.95,-99.39 304.42,-98.25"/>
<polygon fill="black" stroke="black" points="304.65,-94.76 294.48,-97.73 304.28,-101.75 304.65,-94.76"/>
<text text-anchor="middle" x="339.96" y="-100.33" font-family="Times New Roman,serif" font-size="14.00">parent_id</text>
</g>
<!-- links_identifiers -->
<g id="node6" class="node">
<title>links_identifiers</title>
<ellipse fill="none" stroke="black" cx="403.1" cy="-193.5" rx="68.53" ry="18"/>
<text text-anchor="middle" x="403.1" y="-188.07" font-family="Times New Roman,serif" font-size="14.00">links_identifiers</text>
</g>
<!-- links_identifiers&#45;&gt;graphs -->
<g id="edge12" class="edge">
<title>links_identifiers&#45;&gt;graphs</title>
<path fill="none" stroke="black" d="M402.66,-175.19C402.5,-154.21 403.47,-117.91 410.6,-87.75 413.98,-73.45 419.98,-58.3 425.61,-45.86"/>
<polygon fill="black" stroke="black" points="428.64,-47.63 429.73,-37.09 422.31,-44.65 428.64,-47.63"/>
<text text-anchor="middle" x="434.85" y="-100.33" font-family="Times New Roman,serif" font-size="14.00">graph_id</text>
</g>
<!-- links_identifiers&#45;&gt;identifiers -->
<g id="edge14" class="edge">
<title>links_identifiers&#45;&gt;identifiers</title>
<path fill="none" stroke="black" d="M424.89,-175.97C442.41,-162.67 467.22,-143.85 486.53,-129.19"/>
<polygon fill="black" stroke="black" points="488.47,-132.11 494.32,-123.28 484.23,-126.54 488.47,-132.11"/>
<text text-anchor="middle" x="502.1" y="-144.2" font-family="Times New Roman,serif" font-size="14.00">identifier_id</text>
</g>
<!-- links_identifiers&#45;&gt;links -->
<g id="edge15" class="edge">
<title>links_identifiers&#45;&gt;links</title>
<path fill="none" stroke="black" d="M353.14,-180.89C313.02,-171.46 263.09,-159.4 261.6,-157.5 256.54,-151.03 255.98,-142.62 257.33,-134.51"/>
<polygon fill="black" stroke="black" points="260.69,-135.5 259.86,-124.94 253.92,-133.72 260.69,-135.5"/>
<text text-anchor="middle" x="279.85" y="-144.2" font-family="Times New Roman,serif" font-size="14.00">link_id</text>
</g>
<!-- links_identifiers&#45;&gt;links_identifiers -->
<g id="edge13" class="edge">
<title>links_identifiers&#45;&gt;links_identifiers</title>
<path fill="none" stroke="black" d="M464.93,-201.55C479.17,-200.85 489.63,-198.17 489.63,-193.5 489.63,-190.18 484.34,-187.86 476.17,-186.55"/>
<polygon fill="black" stroke="black" points="476.73,-183.09 466.44,-185.6 476.05,-190.06 476.73,-183.09"/>
<text text-anchor="middle" x="515.88" y="-188.07" font-family="Times New Roman,serif" font-size="14.00">parent_id</text>
</g>
<!-- identifiers_links_elements -->
<g id="node7" class="node">
<title>identifiers_links_elements</title>
<ellipse fill="none" stroke="black" cx="667.1" cy="-193.5" rx="105.45" ry="18"/>
<text text-anchor="middle" x="667.1" y="-188.07" font-family="Times New Roman,serif" font-size="14.00">identifiers_links_elements</text>
</g>
<!-- identifiers_links_elements&#45;&gt;graphs -->
<g id="edge16" class="edge">
<title>identifiers_links_elements&#45;&gt;graphs</title>
<path fill="none" stroke="black" d="M667.8,-175.32C667.79,-152.44 664.29,-112.04 642.1,-87.75 601.73,-43.56 531.94,-27.76 485.64,-22.12"/>
<polygon fill="black" stroke="black" points="486.23,-18.66 475.91,-21.06 485.47,-25.62 486.23,-18.66"/>
<text text-anchor="middle" x="684.85" y="-100.33" font-family="Times New Roman,serif" font-size="14.00">graph_id</text>
</g>
<!-- identifiers_links_elements&#45;&gt;identifiers -->
<g id="edge18" class="edge">
<title>identifiers_links_elements&#45;&gt;identifiers</title>
<path fill="none" stroke="black" d="M627.52,-176.44C614.99,-170.91 601.24,-164.37 589.1,-157.5 574.07,-149 558.24,-138.24 545.18,-128.82"/>
<polygon fill="black" stroke="black" points="547.56,-126.23 537.42,-123.14 543.42,-131.87 547.56,-126.23"/>
<text text-anchor="middle" x="622.1" y="-144.2" font-family="Times New Roman,serif" font-size="14.00">identifier_id</text>
</g>
<!-- identifiers_links_elements&#45;&gt;identifiers_links_elements -->
<g id="edge17" class="edge">
<title>identifiers_links_elements&#45;&gt;identifiers_links_elements</title>
<path fill="none" stroke="black" d="M763.38,-201.15C779.46,-200.08 790.55,-197.53 790.55,-193.5 790.55,-190.51 784.44,-188.34 774.72,-186.98"/>
<polygon fill="black" stroke="black" points="775.18,-183.51 764.88,-186 774.49,-190.47 775.18,-183.51"/>
<text text-anchor="middle" x="816.8" y="-188.07" font-family="Times New Roman,serif" font-size="14.00">parent_id</text>
</g>
<!-- links_elements -->
<g id="node8" class="node">
<title>links_elements</title>
<ellipse fill="none" stroke="black" cx="801.1" cy="-105.75" rx="64.54" ry="18"/>
<text text-anchor="middle" x="801.1" y="-100.33" font-family="Times New Roman,serif" font-size="14.00">links_elements</text>
</g>
<!-- identifiers_links_elements&#45;&gt;links_elements -->
<g id="edge19" class="edge">
<title>identifiers_links_elements&#45;&gt;links_elements</title>
<path fill="none" stroke="black" d="M675.7,-175.35C681.96,-164.39 691.39,-150.62 703.1,-141.75 714.41,-133.18 727.99,-126.58 741.4,-121.54"/>
<polygon fill="black" stroke="black" points="742.35,-124.92 750.64,-118.32 740.04,-118.31 742.35,-124.92"/>
<text text-anchor="middle" x="746.6" y="-144.2" font-family="Times New Roman,serif" font-size="14.00">link_element_id</text>
</g>
<!-- links_elements&#45;&gt;graphs -->
<g id="edge20" class="edge">
<title>links_elements&#45;&gt;graphs</title>
<path fill="none" stroke="black" d="M771.34,-89.34C747.95,-77.88 714.23,-62.76 683.1,-54 615.98,-35.11 535.45,-26.09 485.78,-22.02"/>
<polygon fill="black" stroke="black" points="486.2,-18.55 475.96,-21.26 485.66,-25.53 486.2,-18.55"/>
<text text-anchor="middle" x="750.85" y="-56.45" font-family="Times New Roman,serif" font-size="14.00">graph_id</text>
</g>
<!-- links_elements&#45;&gt;links_elements -->
<g id="edge21" class="edge">
<title>links_elements&#45;&gt;links_elements</title>
<path fill="none" stroke="black" d="M859.33,-113.83C873.29,-113.2 883.64,-110.51 883.64,-105.75 883.64,-102.41 878.52,-100.08 870.63,-98.78"/>
<polygon fill="black" stroke="black" points="871.13,-95.31 860.84,-97.82 870.45,-102.28 871.13,-95.31"/>
<text text-anchor="middle" x="909.89" y="-100.33" font-family="Times New Roman,serif" font-size="14.00">parent_id</text>
</g>
<!-- links_elements_identifiers -->
<g id="node9" class="node">
<title>links_elements_identifiers</title>
<ellipse fill="none" stroke="black" cx="966.1" cy="-193.5" rx="105.45" ry="18"/>
<text text-anchor="middle" x="966.1" y="-188.07" font-family="Times New Roman,serif" font-size="14.00">links_elements_identifiers</text>
</g>
<!-- links_elements_identifiers&#45;&gt;graphs -->
<g id="edge22" class="edge">
<title>links_elements_identifiers&#45;&gt;graphs</title>
<path fill="none" stroke="black" d="M981.03,-175.41C987.68,-165.71 993.19,-153.23 989.1,-141.75 978.72,-112.58 971.58,-103.78 945.1,-87.75 868.36,-41.29 596.73,-25.32 486.3,-20.67"/>
<polygon fill="black" stroke="black" points="486.54,-17.18 476.4,-20.27 486.25,-24.17 486.54,-17.18"/>
<text text-anchor="middle" x="1005.85" y="-100.33" font-family="Times New Roman,serif" font-size="14.00">graph_id</text>
</g>
<!-- links_elements_identifiers&#45;&gt;identifiers -->
<g id="edge25" class="edge">
<title>links_elements_identifiers&#45;&gt;identifiers</title>
<path fill="none" stroke="black" d="M884.16,-181.82C859.23,-176.59 832.3,-168.87 809.1,-157.5 799.25,-152.67 800.17,-146.11 790.1,-141.75 731.32,-116.29 710.64,-131.87 647.1,-123.75 622.08,-120.55 594.37,-116.96 570.91,-113.91"/>
<polygon fill="black" stroke="black" points="571.63,-110.47 561.26,-112.65 570.73,-117.42 571.63,-110.47"/>
<text text-anchor="middle" x="842.1" y="-144.2" font-family="Times New Roman,serif" font-size="14.00">identifier_id</text>
</g>
<!-- links_elements_identifiers&#45;&gt;links_elements -->
<g id="edge24" class="edge">
<title>links_elements_identifiers&#45;&gt;links_elements</title>
<path fill="none" stroke="black" d="M934.49,-176.03C924.05,-170.37 912.46,-163.86 902.1,-157.5 891.54,-151.02 889.91,-147.81 879.1,-141.75 869,-136.09 857.82,-130.63 847.14,-125.77"/>
<polygon fill="black" stroke="black" points="848.64,-122.61 838.08,-121.74 845.8,-129 848.64,-122.61"/>
<text text-anchor="middle" x="945.6" y="-144.2" font-family="Times New Roman,serif" font-size="14.00">link_element_id</text>
</g>
<!-- links_elements_identifiers&#45;&gt;links_elements_identifiers -->
<g id="edge23" class="edge">
<title>links_elements_identifiers&#45;&gt;links_elements_identifiers</title>
<path fill="none" stroke="black" d="M1062.38,-201.15C1078.46,-200.08 1089.55,-197.53 1089.55,-193.5 1089.55,-190.51 1083.44,-188.34 1073.72,-186.98"/>
<polygon fill="black" stroke="black" points="1074.18,-183.51 1063.88,-186 1073.49,-190.47 1074.18,-183.51"/>
<text text-anchor="middle" x="1115.8" y="-188.07" font-family="Times New Roman,serif" font-size="14.00">parent_id</text>
</g>
</g>
</svg>
