<?xml version="1.0" encoding="UTF-8" standalone="no"?>
<!DOCTYPE svg PUBLIC "-//W3C//DTD SVG 1.1//EN"
 "http://www.w3.org/Graphics/SVG/1.1/DTD/svg11.dtd">
<!-- Generated by graphviz version 9.0.0 (20230911.1827)
 -->
<!-- Pages: 1 -->
<svg width="854pt" height="307pt"
 viewBox="0.00 0.00 853.60 307.25" xmlns="http://www.w3.org/2000/svg" xmlns:xlink="http://www.w3.org/1999/xlink">
<g id="graph0" class="graph" transform="scale(1 1) rotate(0) translate(4 303.25)">
<polygon fill="white" stroke="none" points="-4,4 -4,-303.25 849.6,-303.25 849.6,4 -4,4"/>
<!-- graphs -->
<g id="node1" class="node">
<title>graphs</title>
<ellipse fill="none" stroke="black" cx="440.1" cy="-18" rx="35.6" ry="18"/>
<text text-anchor="middle" x="440.1" y="-12.57" font-family="Times New Roman,serif" font-size="14.00">graphs</text>
</g>
<!-- graphs&#45;&gt;graphs -->
<g id="edge1" class="edge">
<title>graphs&#45;&gt;graphs</title>
<path fill="none" stroke="black" d="M472.28,-26.21C484.05,-26.44 493.7,-23.7 493.7,-18 493.7,-14.26 489.54,-11.8 483.36,-10.61"/>
<polygon fill="black" stroke="black" points="484.02,-7.15 473.79,-9.9 483.5,-14.13 484.02,-7.15"/>
<text text-anchor="middle" x="518.45" y="-12.57" font-family="Times New Roman,serif" font-size="14.00">graph_id</text>
</g>
<!-- nodes -->
<g id="node2" class="node">
<title>nodes</title>
<ellipse fill="none" stroke="black" cx="33.1" cy="-105.75" rx="33.1" ry="18"/>
<text text-anchor="middle" x="33.1" y="-100.33" font-family="Times New Roman,serif" font-size="14.00">nodes</text>
</g>
<!-- nodes&#45;&gt;graphs -->
<g id="edge2" class="edge">
<title>nodes&#45;&gt;graphs</title>
<path fill="none" stroke="black" d="M50.02,-90.02C64.71,-78.13 87.11,-62.1 109.6,-54 160.59,-35.64 314.71,-25.38 393.15,-21.22"/>
<polygon fill="black" stroke="black" points="393.29,-24.71 403.1,-20.7 392.93,-17.72 393.29,-24.71"/>
<text text-anchor="middle" x="134.85" y="-56.45" font-family="Times New Roman,serif" font-size="14.00">graph_id</text>
</g>
<!-- nodes&#45;&gt;nodes -->
<g id="edge3" class="edge">
<title>nodes&#45;&gt;nodes</title>
<path fill="none" stroke="black" d="M63.02,-113.94C74.59,-114.31 84.2,-111.58 84.2,-105.75 84.2,-102.02 80.25,-99.55 74.38,-98.36"/>
<polygon fill="black" stroke="black" points="74.75,-94.88 64.53,-97.66 74.25,-101.86 74.75,-94.88"/>
<text text-anchor="middle" x="110.45" y="-100.33" font-family="Times New Roman,serif" font-size="14.00">parent_id</text>
</g>
<!-- identifiers -->
<g id="node3" class="node">
<title>identifiers</title>
<ellipse fill="none" stroke="black" cx="287.1" cy="-105.75" rx="46.57" ry="18"/>
<text text-anchor="middle" x="287.1" y="-100.33" font-family="Times New Roman,serif" font-size="14.00">identifiers</text>
</g>
<!-- identifiers&#45;&gt;graphs -->
<g id="edge4" class="edge">
<title>identifiers&#45;&gt;graphs</title>
<path fill="none" stroke="black" d="M312.52,-90.23C330.4,-80.04 354.93,-66.12 376.6,-54 386.28,-48.59 396.82,-42.75 406.48,-37.43"/>
<polygon fill="black" stroke="black" points="408.14,-40.51 415.21,-32.63 404.77,-34.38 408.14,-40.51"/>
<text text-anchor="middle" x="400.85" y="-56.45" font-family="Times New Roman,serif" font-size="14.00">graph_id</text>
</g>
<!-- identifiers&#45;&gt;identifiers -->
<g id="edge5" class="edge">
<title>identifiers&#45;&gt;identifiers</title>
<path fill="none" stroke="black" d="M329.02,-113.96C341.74,-113.76 351.67,-111.02 351.67,-105.75 351.67,-102.21 347.19,-99.81 340.39,-98.56"/>
<polygon fill="black" stroke="black" points="340.8,-95.08 330.53,-97.67 340.18,-102.05 340.8,-95.08"/>
<text text-anchor="middle" x="377.92" y="-100.33" font-family="Times New Roman,serif" font-size="14.00">parent_id</text>
</g>
<!-- nodes_identifiers -->
<g id="node4" class="node">
<title>nodes_identifiers</title>
<ellipse fill="none" stroke="black" cx="106.1" cy="-193.5" rx="74.02" ry="18"/>
<text text-anchor="middle" x="106.1" y="-188.07" font-family="Times New Roman,serif" font-size="14.00">nodes_identifiers</text>
</g>
<!-- nodes_identifiers&#45;&gt;graphs -->
<g id="edge6" class="edge">
<title>nodes_identifiers&#45;&gt;graphs</title>
<path fill="none" stroke="black" d="M116.36,-175.51C132.7,-148.98 164.52,-99.51 181.6,-87.75 246.41,-43.12 338.67,-27.45 393.66,-21.96"/>
<polygon fill="black" stroke="black" points="393.66,-25.47 403.29,-21.07 393.02,-18.5 393.66,-25.47"/>
<text text-anchor="middle" x="206.85" y="-100.33" font-family="Times New Roman,serif" font-size="14.00">graph_id</text>
</g>
<!-- nodes_identifiers&#45;&gt;nodes -->
<g id="edge9" class="edge">
<title>nodes_identifiers&#45;&gt;nodes</title>
<path fill="none" stroke="black" d="M91.68,-175.56C80.91,-162.91 66.03,-145.43 53.96,-131.25"/>
<polygon fill="black" stroke="black" points="56.64,-129 47.49,-123.65 51.31,-133.54 56.64,-129"/>
<text text-anchor="middle" x="99.98" y="-144.2" font-family="Times New Roman,serif" font-size="14.00">node_id</text>
</g>
<!-- nodes_identifiers&#45;&gt;identifiers -->
<g id="edge8" class="edge">
<title>nodes_identifiers&#45;&gt;identifiers</title>
<path fill="none" stroke="black" d="M142.88,-177.61C156.13,-171.83 171.02,-164.83 184.1,-157.5 194.91,-151.44 196.27,-147.76 207.1,-141.75 218.89,-135.21 232.15,-128.99 244.42,-123.66"/>
<polygon fill="black" stroke="black" points="245.67,-126.93 253.51,-119.8 242.94,-120.49 245.67,-126.93"/>
<text text-anchor="middle" x="240.1" y="-144.2" font-family="Times New Roman,serif" font-size="14.00">identifier_id</text>
</g>
<!-- nodes_identifiers&#45;&gt;nodes_identifiers -->
<g id="edge7" class="edge">
<title>nodes_identifiers&#45;&gt;nodes_identifiers</title>
<path fill="none" stroke="black" d="M173.1,-201.48C187.6,-200.7 198.12,-198.04 198.12,-193.5 198.12,-190.27 192.8,-187.99 184.52,-186.66"/>
<polygon fill="black" stroke="black" points="184.9,-183.19 174.6,-185.67 184.2,-190.15 184.9,-183.19"/>
<text text-anchor="middle" x="224.37" y="-188.07" font-family="Times New Roman,serif" font-size="14.00">parent_id</text>
</g>
<!-- links -->
<g id="node5" class="node">
<title>links</title>
<ellipse fill="none" stroke="black" cx="535.1" cy="-105.75" rx="27.61" ry="18"/>
<text text-anchor="middle" x="535.1" y="-100.33" font-family="Times New Roman,serif" font-size="14.00">links</text>
</g>
<!-- links&#45;&gt;graphs -->
<g id="edge10" class="edge">
<title>links&#45;&gt;graphs</title>
<path fill="none" stroke="black" d="M519.41,-90.59C504.69,-77.3 482.43,-57.21 465.23,-41.69"/>
<polygon fill="black" stroke="black" points="467.66,-39.16 457.89,-35.06 462.97,-44.36 467.66,-39.16"/>
<text text-anchor="middle" x="520.85" y="-56.45" font-family="Times New Roman,serif" font-size="14.00">graph_id</text>
</g>
<!-- links&#45;&gt;links -->
<g id="edge11" class="edge">
<title>links&#45;&gt;links</title>
<path fill="none" stroke="black" d="M559.97,-113.85C571.09,-114.62 580.71,-111.92 580.71,-105.75 580.71,-101.89 576.95,-99.39 571.42,-98.25"/>
<polygon fill="black" stroke="black" points="571.65,-94.76 561.48,-97.73 571.28,-101.75 571.65,-94.76"/>
<text text-anchor="middle" x="606.96" y="-100.33" font-family="Times New Roman,serif" font-size="14.00">parent_id</text>
</g>
<!-- links_identifiers -->
<g id="node6" class="node">
<title>links_identifiers</title>
<ellipse fill="none" stroke="black" cx="440.1" cy="-193.5" rx="68.53" ry="18"/>
<text text-anchor="middle" x="440.1" y="-188.07" font-family="Times New Roman,serif" font-size="14.00">links_identifiers</text>
</g>
<!-- links_identifiers&#45;&gt;graphs -->
<g id="edge12" class="edge">
<title>links_identifiers&#45;&gt;graphs</title>
<path fill="none" stroke="black" d="M440.1,-175.23C440.1,-145.43 440.1,-84.05 440.1,-47.73"/>
<polygon fill="black" stroke="black" points="443.6,-47.97 440.1,-37.97 436.6,-47.97 443.6,-47.97"/>
<text text-anchor="middle" x="464.85" y="-100.33" font-family="Times New Roman,serif" font-size="14.00">graph_id</text>
</g>
<!-- links_identifiers&#45;&gt;identifiers -->
<g id="edge14" class="edge">
<title>links_identifiers&#45;&gt;identifiers</title>
<path fill="none" stroke="black" d="M403.13,-178.11C389.34,-172.28 373.73,-165.12 360.1,-157.5 345.03,-149.07 329.2,-138.32 316.14,-128.89"/>
<polygon fill="black" stroke="black" points="318.52,-126.29 308.39,-123.2 314.38,-131.94 318.52,-126.29"/>
<text text-anchor="middle" x="393.1" y="-144.2" font-family="Times New Roman,serif" font-size="14.00">identifier_id</text>
</g>
<!-- links_identifiers&#45;&gt;links -->
<g id="edge15" class="edge">
<title>links_identifiers&#45;&gt;links</title>
<path fill="none" stroke="black" d="M458.42,-175.97C473.34,-162.5 494.53,-143.37 510.86,-128.63"/>
<polygon fill="black" stroke="black" points="513.16,-131.27 518.24,-121.97 508.47,-126.07 513.16,-131.27"/>
<text text-anchor="middle" x="514.85" y="-144.2" font-family="Times New Roman,serif" font-size="14.00">link_id</text>
</g>
<!-- links_identifiers&#45;&gt;links_identifiers -->
<g id="edge13" class="edge">
<title>links_identifiers&#45;&gt;links_identifiers</title>
<path fill="none" stroke="black" d="M501.93,-201.55C516.17,-200.85 526.63,-198.17 526.63,-193.5 526.63,-190.18 521.34,-187.86 513.17,-186.55"/>
<polygon fill="black" stroke="black" points="513.73,-183.09 503.44,-185.6 513.05,-190.06 513.73,-183.09"/>
<text text-anchor="middle" x="552.88" y="-188.07" font-family="Times New Roman,serif" font-size="14.00">parent_id</text>
</g>
<!-- links_elements -->
<g id="node7" class="node">
<title>links_elements</title>
<ellipse fill="none" stroke="black" cx="662.1" cy="-193.5" rx="64.54" ry="18"/>
<text text-anchor="middle" x="662.1" y="-188.07" font-family="Times New Roman,serif" font-size="14.00">links_elements</text>
</g>
<!-- links_elements&#45;&gt;graphs -->
<g id="edge16" class="edge">
<title>links_elements&#45;&gt;graphs</title>
<path fill="none" stroke="black" d="M663.66,-175.09C664.72,-152.33 663.07,-112.45 642.1,-87.75 603.53,-42.32 533.67,-26.84 487.07,-21.61"/>
<polygon fill="black" stroke="black" points="487.57,-18.14 477.27,-20.63 486.87,-25.1 487.57,-18.14"/>
<text text-anchor="middle" x="683.85" y="-100.33" font-family="Times New Roman,serif" font-size="14.00">graph_id</text>
</g>
<!-- links_elements&#45;&gt;links -->
<g id="edge18" class="edge">
<title>links_elements&#45;&gt;links</title>
<path fill="none" stroke="black" d="M638.21,-176.37C616.93,-162 585.77,-140.96 563.28,-125.77"/>
<polygon fill="black" stroke="black" points="565.42,-123 555.17,-120.3 561.5,-128.8 565.42,-123"/>
<text text-anchor="middle" x="627.85" y="-144.2" font-family="Times New Roman,serif" font-size="14.00">link_id</text>
</g>
<!-- links_elements&#45;&gt;links_elements -->
<g id="edge17" class="edge">
<title>links_elements&#45;&gt;links_elements</title>
<path fill="none" stroke="black" d="M720.33,-201.58C734.29,-200.95 744.64,-198.26 744.64,-193.5 744.64,-190.16 739.52,-187.83 731.63,-186.53"/>
<polygon fill="black" stroke="black" points="732.13,-183.06 721.84,-185.57 731.45,-190.03 732.13,-183.06"/>
<text text-anchor="middle" x="770.89" y="-188.07" font-family="Times New Roman,serif" font-size="14.00">parent_id</text>
</g>
<!-- links_elements_identifiers -->
<g id="node8" class="node">
<title>links_elements_identifiers</title>
<ellipse fill="none" stroke="black" cx="662.1" cy="-281.25" rx="105.45" ry="18"/>
<text text-anchor="middle" x="662.1" y="-275.82" font-family="Times New Roman,serif" font-size="14.00">links_elements_identifiers</text>
</g>
<!-- links_elements_identifiers&#45;&gt;graphs -->
<g id="edge19" class="edge">
<title>links_elements_identifiers&#45;&gt;graphs</title>
<path fill="none" stroke="black" d="M728.43,-266.96C758.28,-257.15 790.31,-240.28 806.1,-211.5 813.8,-197.47 812.44,-190.19 806.1,-175.5 753.5,-53.56 573.64,-26.5 487.21,-20.59"/>
<polygon fill="black" stroke="black" points="487.61,-17.11 477.42,-20 487.18,-24.1 487.61,-17.11"/>
<text text-anchor="middle" x="820.85" y="-144.2" font-family="Times New Roman,serif" font-size="14.00">graph_id</text>
</g>
<!-- links_elements_identifiers&#45;&gt;identifiers -->
<g id="edge22" class="edge">
<title>links_elements_identifiers&#45;&gt;identifiers</title>
<path fill="none" stroke="black" d="M563.17,-274.85C467.2,-267.39 331.07,-250.15 296.1,-211.5 277.75,-191.21 277.8,-158.78 281,-135.37"/>
<polygon fill="black" stroke="black" points="284.44,-136 282.63,-125.56 277.53,-134.85 284.44,-136"/>
<text text-anchor="middle" x="329.1" y="-188.07" font-family="Times New Roman,serif" font-size="14.00">identifier_id</text>
</g>
<!-- links_elements_identifiers&#45;&gt;links_elements -->
<g id="edge21" class="edge">
<title>links_elements_identifiers&#45;&gt;links_elements</title>
<path fill="none" stroke="black" d="M662.1,-262.9C662.1,-251.51 662.1,-236.34 662.1,-223.18"/>
<polygon fill="black" stroke="black" points="665.6,-223.34 662.1,-213.34 658.6,-223.34 665.6,-223.34"/>
<text text-anchor="middle" x="705.6" y="-231.95" font-family="Times New Roman,serif" font-size="14.00">link_element_id</text>
</g>
<!-- links_elements_identifiers&#45;&gt;links_elements_identifiers -->
<g id="edge20" class="edge">
<title>links_elements_identifiers&#45;&gt;links_elements_identifiers</title>
<path fill="none" stroke="black" d="M758.38,-288.9C774.46,-287.83 785.55,-285.28 785.55,-281.25 785.55,-278.26 779.44,-276.09 769.72,-274.73"/>
<polygon fill="black" stroke="black" points="770.18,-271.26 759.88,-273.75 769.49,-278.22 770.18,-271.26"/>
<text text-anchor="middle" x="811.8" y="-275.82" font-family="Times New Roman,serif" font-size="14.00">parent_id</text>
</g>
</g>
</svg>
