<?xml version="1.0" encoding="UTF-8" standalone="no"?>
<!DOCTYPE svg PUBLIC "-//W3C//DTD SVG 1.1//EN"
 "http://www.w3.org/Graphics/SVG/1.1/DTD/svg11.dtd">
<!-- Generated by graphviz version 9.0.0 (20230911.1827)
 -->
<!-- Pages: 1 -->
<svg width="214pt" height="44pt"
 viewBox="0.00 0.00 213.70 44.00" xmlns="http://www.w3.org/2000/svg" xmlns:xlink="http://www.w3.org/1999/xlink">
<g id="graph0" class="graph" transform="scale(1 1) rotate(0) translate(4 40)">
<polygon fill="white" stroke="none" points="-4,4 -4,-40 209.7,-40 209.7,4 -4,4"/>
<!-- nodes -->
<g id="node1" class="node">
<title>nodes</title>
<ellipse fill="none" stroke="black" cx="33.1" cy="-18" rx="33.1" ry="18"/>
<text text-anchor="middle" x="33.1" y="-12.57" font-family="Times New Roman,serif" font-size="14.00">nodes</text>
</g>
<!-- nodes&#45;&gt;nodes -->
<g id="edge1" class="edge">
<title>nodes&#45;&gt;nodes</title>
<path fill="none" stroke="black" d="M66.03,-20.25C76.21,-20.2 84.2,-19.45 84.2,-18 84.2,-17.16 81.53,-16.56 77.31,-16.19"/>
<polygon fill="black" stroke="black" points="77.67,-12.7 67.54,-15.81 77.4,-19.69 77.67,-12.7"/>
<text text-anchor="middle" x="99.95" y="-12.57" font-family="Times New Roman,serif" font-size="14.00">graph</text>
</g>
<!-- nodes&#45;&gt;nodes -->
<g id="edge2" class="edge">
<title>nodes&#45;&gt;nodes</title>
<path fill="none" stroke="black" d="M65.47,-22.04C89.74,-23.31 115.7,-21.96 115.7,-18 115.7,-14.66 97.22,-13.18 76.86,-13.56"/>
<polygon fill="black" stroke="black" points="76.85,-10.06 66.98,-13.91 77.1,-17.05 76.85,-10.06"/>
<text text-anchor="middle" x="132.95" y="-12.57" font-family="Times New Roman,serif" font-size="14.00">parent</text>
</g>
<!-- nodes&#45;&gt;nodes -->
<g id="edge3" class="edge">
<title>nodes&#45;&gt;nodes</title>
<path fill="none" stroke="black" d="M65.1,-23.19C101.94,-26.39 150.2,-24.66 150.2,-18 150.2,-11.99 110.91,-9.99 76.16,-12.01"/>
<polygon fill="black" stroke="black" points="76.33,-8.49 66.61,-12.7 76.83,-15.47 76.33,-8.49"/>
<text text-anchor="middle" x="159.95" y="-12.57" font-family="Times New Roman,serif" font-size="14.00">link</text>
</g>
</g>
</svg>
